<svg xmlns="http://www.w3.org/2000/svg" viewBox="0 0 100 100">
  <g fill="none" stroke="#000" stroke-width="4.5" stroke-linejoin="round" stroke-linecap="round">
    <!-- head -->
    <rect x="35" y="5" width="30" height="21" rx="3"/>
    <!-- ears -->
    <rect x="27" y="10" width="8" height="11" rx="2"/>
    <rect x="65" y="10" width="8" height="11" rx="2"/>
    <!-- face -->
    <line x1="44" y1="11" x2="44" y2="16"/>
    <line x1="56" y1="11" x2="56" y2="16"/>
    <line x1="46" y1="21" x2="54" y2="21"/>
    <!-- neck -->
    <rect x="45" y="26" width="10" height="6"/>
    <!-- torso -->
    <polygon points="36,32 64,32 71,58 64,70 36,70 29,58"/>
    <!-- chest -->
    <polygon points="43,39 57,39 53,49 47,49"/>
    <line x1="44" y1="55" x2="56" y2="55"/>
    <line x1="45" y1="61" x2="55" y2="61"/>
    <!-- left arm -->
    <polyline points="36,33 24,38 27,44 33,42"/>
    <polyline points="24,38 14,62 20,64"/>
    <rect x="8" y="62" width="14" height="12" rx="1"/>
    <line x1="15" y1="68" x2="15" y2="74"/>
    <!-- right arm -->
    <polyline points="64,33 76,38 73,44 67,42"/>
    <polyline points="76,38 86,62 80,64"/>
    <rect x="78" y="62" width="14" height="12" rx="1"/>
    <line x1="85" y1="68" x2="85" y2="74"/>
    <!-- legs -->
    <polyline points="42,70 36,90 44,90 48,70"/>
    <polyline points="58,70 64,90 56,90 52,70"/>
    <rect x="31" y="88" width="16" height="8" rx="1"/>
    <rect x="53" y="88" width="16" height="8" rx="1"/>
  </g>
</svg>
